<svg width="608" height="45" viewBox="0 0 608 45" fill="none" xmlns="http://www.w3.org/2000/svg">
<path fill-rule="evenodd" clip-rule="evenodd" d="M0 1.99999C0 0.895423 0.895431 -7.62939e-06 2 -7.62939e-06H236V7.99999H2C0.895433 7.99999 0 7.10456 0 5.99999V1.99999Z" fill="#FFCC00"/>
<path d="M20.9766 41H16.1309V32.4336H20.9766V33.6172H17.5312V35.9492H20.7598V37.1211H17.5312V39.8105H20.9766V41ZM25.9746 34.4023C26.252 34.4023 26.4805 34.4219 26.6602 34.4609L26.5254 35.7441C26.3301 35.6973 26.127 35.6738 25.916 35.6738C25.3652 35.6738 24.918 35.8535 24.5742 36.2129C24.2344 36.5723 24.0645 37.0391 24.0645 37.6133V41H22.6875V34.5195H23.7656L23.9473 35.6621H24.0176C24.2324 35.2754 24.5117 34.9687 24.8555 34.7422C25.2031 34.5156 25.5762 34.4023 25.9746 34.4023ZM31.1543 34.4023C31.4316 34.4023 31.6602 34.4219 31.8398 34.4609L31.7051 35.7441C31.5098 35.6973 31.3066 35.6738 31.0957 35.6738C30.5449 35.6738 30.0977 35.8535 29.7539 36.2129C29.4141 36.5723 29.2441 37.0391 29.2441 37.6133V41H27.8672V34.5195H28.9453L29.127 35.6621H29.1973C29.4121 35.2754 29.6914 34.9687 30.0352 34.7422C30.3828 34.5156 30.7559 34.4023 31.1543 34.4023ZM38.7949 37.748C38.7949 38.8066 38.5234 39.6328 37.9805 40.2266C37.4375 40.8203 36.6816 41.1172 35.7129 41.1172C35.1074 41.1172 34.5723 40.9805 34.1074 40.707C33.6426 40.4336 33.2852 40.041 33.0352 39.5293C32.7852 39.0176 32.6602 38.4238 32.6602 37.748C32.6602 36.6973 32.9297 35.8769 33.4688 35.2871C34.0078 34.6973 34.7676 34.4023 35.748 34.4023C36.6855 34.4023 37.4277 34.7051 37.9746 35.3105C38.5215 35.9121 38.7949 36.7246 38.7949 37.748ZM34.0781 37.748C34.0781 39.2441 34.6309 39.9922 35.7363 39.9922C36.8301 39.9922 37.377 39.2441 37.377 37.748C37.377 36.2676 36.8262 35.5273 35.7246 35.5273C35.1465 35.5273 34.7266 35.7187 34.4648 36.1016C34.207 36.4844 34.0781 37.0332 34.0781 37.748ZM43.6699 34.4023C43.9473 34.4023 44.1758 34.4219 44.3555 34.4609L44.2207 35.7441C44.0254 35.6973 43.8223 35.6738 43.6113 35.6738C43.0605 35.6738 42.6133 35.8535 42.2695 36.2129C41.9297 36.5723 41.7598 37.0391 41.7598 37.6133V41H40.3828V34.5195H41.4609L41.6426 35.6621H41.7129C41.9277 35.2754 42.207 34.9687 42.5508 34.7422C42.8984 34.5156 43.2715 34.4023 43.6699 34.4023ZM51.1289 35.6504C51.9922 35.6504 52.6758 35.8789 53.1797 36.3359C53.6836 36.793 53.9355 37.416 53.9355 38.2051C53.9355 39.1191 53.6484 39.834 53.0742 40.3496C52.5039 40.8613 51.6914 41.1172 50.6367 41.1172C49.6797 41.1172 48.9277 40.9629 48.3809 40.6543V39.4062C48.6973 39.5859 49.0605 39.7246 49.4707 39.8223C49.8809 39.9199 50.2617 39.9687 50.6133 39.9687C51.2344 39.9687 51.707 39.8301 52.0312 39.5527C52.3555 39.2754 52.5176 38.8691 52.5176 38.334C52.5176 37.3105 51.8652 36.7988 50.5605 36.7988C50.377 36.7988 50.1504 36.8184 49.8809 36.8574C49.6113 36.8926 49.375 36.9336 49.1719 36.9805L48.5566 36.6172L48.8848 32.4336H53.3379V33.6582H50.0977L49.9043 35.7793C50.041 35.7559 50.207 35.7285 50.4023 35.6973C50.6016 35.666 50.8438 35.6504 51.1289 35.6504ZM60.8848 36.7168C60.8848 38.2051 60.6445 39.3105 60.1641 40.0332C59.6875 40.7559 58.957 41.1172 57.9727 41.1172C57.0195 41.1172 56.2969 40.7441 55.8047 39.998C55.3125 39.2519 55.0664 38.1582 55.0664 36.7168C55.0664 35.2051 55.3047 34.0918 55.7812 33.3769C56.2617 32.6582 56.9922 32.2988 57.9727 32.2988C58.9297 32.2988 59.6543 32.6738 60.1465 33.4238C60.6387 34.1738 60.8848 35.2715 60.8848 36.7168ZM56.4609 36.7168C56.4609 37.8848 56.5801 38.7187 56.8184 39.2187C57.0605 39.7187 57.4453 39.9687 57.9727 39.9687C58.5 39.9687 58.8848 39.7148 59.127 39.207C59.373 38.6992 59.4961 37.8691 59.4961 36.7168C59.4961 35.5684 59.373 34.7383 59.127 34.2266C58.8848 33.7109 58.5 33.4531 57.9727 33.4531C57.4453 33.4531 57.0605 33.7051 56.8184 34.209C56.5801 34.7129 56.4609 35.5488 56.4609 36.7168ZM67.7402 36.7168C67.7402 38.2051 67.5 39.3105 67.0195 40.0332C66.543 40.7559 65.8125 41.1172 64.8281 41.1172C63.875 41.1172 63.1523 40.7441 62.6602 39.998C62.168 39.2519 61.9219 38.1582 61.9219 36.7168C61.9219 35.2051 62.1602 34.0918 62.6367 33.3769C63.1172 32.6582 63.8477 32.2988 64.8281 32.2988C65.7852 32.2988 66.5098 32.6738 67.002 33.4238C67.4941 34.1738 67.7402 35.2715 67.7402 36.7168ZM63.3164 36.7168C63.3164 37.8848 63.4355 38.7187 63.6738 39.2187C63.916 39.7187 64.3008 39.9687 64.8281 39.9687C65.3555 39.9687 65.7402 39.7148 65.9824 39.207C66.2285 38.6992 66.3516 37.8691 66.3516 36.7168C66.3516 35.5684 66.2285 34.7383 65.9824 34.2266C65.7402 33.7109 65.3555 33.4531 64.8281 33.4531C64.3008 33.4531 63.916 33.7051 63.6738 34.209C63.4355 34.7129 63.3164 35.5488 63.3164 36.7168ZM69.041 40.2676C69.041 39.9824 69.1152 39.7637 69.2637 39.6113C69.4121 39.459 69.627 39.3828 69.9082 39.3828C70.1934 39.3828 70.4102 39.4629 70.5586 39.623C70.707 39.7793 70.7812 39.9941 70.7812 40.2676C70.7812 40.5449 70.7051 40.7656 70.5527 40.9297C70.4043 41.0898 70.1895 41.1699 69.9082 41.1699C69.627 41.1699 69.4121 41.0898 69.2637 40.9297C69.1152 40.7695 69.041 40.5488 69.041 40.2676ZM69.041 35.2637C69.041 34.6738 69.3301 34.3789 69.9082 34.3789C70.2012 34.3789 70.4199 34.457 70.5645 34.6133C70.709 34.7695 70.7812 34.9863 70.7812 35.2637C70.7812 35.541 70.7051 35.7617 70.5527 35.9258C70.4043 36.0859 70.1895 36.166 69.9082 36.166C69.627 36.166 69.4121 36.0859 69.2637 35.9258C69.1152 35.7656 69.041 35.5449 69.041 35.2637ZM79.2539 41H77.877V35.4687C77.877 34.8086 77.8926 34.2851 77.9238 33.8984C77.834 33.9922 77.7227 34.0957 77.5898 34.209C77.4609 34.3223 77.0234 34.6816 76.2773 35.2871L75.5859 34.4141L78.1055 32.4336H79.2539V41ZM90.9902 41H85.1836V39.957L87.3926 37.7363C88.0449 37.0684 88.4766 36.5957 88.6875 36.3184C88.9023 36.0371 89.0586 35.7734 89.1562 35.5273C89.2539 35.2812 89.3027 35.0176 89.3027 34.7363C89.3027 34.3496 89.1855 34.0449 88.9512 33.8223C88.7207 33.5996 88.4004 33.4883 87.9902 33.4883C87.6621 33.4883 87.3438 33.5488 87.0352 33.6699C86.7305 33.791 86.377 34.0098 85.9746 34.3262L85.2305 33.418C85.707 33.0156 86.1699 32.7305 86.6191 32.5625C87.0684 32.3945 87.5469 32.3105 88.0547 32.3105C88.8516 32.3105 89.4902 32.5195 89.9707 32.9375C90.4512 33.3516 90.6914 33.9101 90.6914 34.6133C90.6914 35 90.6211 35.3672 90.4805 35.7148C90.3438 36.0625 90.1309 36.4219 89.8418 36.793C89.5566 37.1601 89.0801 37.6582 88.4121 38.2871L86.9238 39.7285V39.7871H90.9902V41ZM94.9453 35.6504C95.8086 35.6504 96.4922 35.8789 96.9961 36.3359C97.5 36.793 97.752 37.416 97.752 38.2051C97.752 39.1191 97.4648 39.834 96.8906 40.3496C96.3203 40.8613 95.5078 41.1172 94.4531 41.1172C93.4961 41.1172 92.7441 40.9629 92.1973 40.6543V39.4062C92.5137 39.5859 92.877 39.7246 93.2871 39.8223C93.6973 39.9199 94.0781 39.9687 94.4297 39.9687C95.0508 39.9687 95.5234 39.8301 95.8477 39.5527C96.1719 39.2754 96.334 38.8691 96.334 38.334C96.334 37.3105 95.6816 36.7988 94.377 36.7988C94.1934 36.7988 93.9668 36.8184 93.6973 36.8574C93.4277 36.8926 93.1914 36.9336 92.9883 36.9805L92.373 36.6172L92.7012 32.4336H97.1543V33.6582H93.9141L93.7207 35.7793C93.8574 35.7559 94.0234 35.7285 94.2188 35.6973C94.418 35.666 94.6602 35.6504 94.9453 35.6504ZM98.918 37.3496C98.918 33.998 100.283 32.3223 103.014 32.3223C103.443 32.3223 103.807 32.3555 104.104 32.4219V33.5703C103.807 33.4844 103.463 33.4414 103.072 33.4414C102.154 33.4414 101.465 33.6875 101.004 34.1797C100.543 34.6719 100.293 35.4609 100.254 36.5469H100.324C100.508 36.2305 100.766 35.9863 101.098 35.8144C101.43 35.6387 101.82 35.5508 102.27 35.5508C103.047 35.5508 103.652 35.7891 104.086 36.2656C104.52 36.7422 104.736 37.3887 104.736 38.2051C104.736 39.1035 104.484 39.8144 103.98 40.3379C103.48 40.8574 102.797 41.1172 101.93 41.1172C101.316 41.1172 100.783 40.9707 100.33 40.6777C99.877 40.3809 99.5273 39.9512 99.2812 39.3887C99.0391 38.8223 98.918 38.1426 98.918 37.3496ZM101.906 39.9805C102.379 39.9805 102.742 39.8281 102.996 39.5234C103.254 39.2187 103.383 38.7832 103.383 38.2168C103.383 37.7246 103.262 37.3379 103.02 37.0566C102.781 36.7754 102.422 36.6348 101.941 36.6348C101.645 36.6348 101.371 36.6992 101.121 36.8281C100.871 36.9531 100.674 37.1269 100.529 37.3496C100.385 37.5684 100.312 37.793 100.312 38.0234C100.312 38.5742 100.461 39.0391 100.758 39.418C101.059 39.793 101.441 39.9805 101.906 39.9805Z" fill="#4A4A4A"/>
<path fill-rule="evenodd" clip-rule="evenodd" d="M0 34C0 32.8954 0.895431 32 2 32H8C9.10457 32 10 32.8954 10 34V40C10 41.1046 9.10457 42 8 42H2C0.89543 42 0 41.1046 0 40V34Z" fill="#FFCC00"/>
<path d="M156.977 41H152.131V32.4336H156.977V33.6172H153.531V35.9492H156.76V37.1211H153.531V39.8105H156.977V41ZM161.975 34.4023C162.252 34.4023 162.48 34.4219 162.66 34.4609L162.525 35.7441C162.33 35.6973 162.127 35.6738 161.916 35.6738C161.365 35.6738 160.918 35.8535 160.574 36.2129C160.234 36.5723 160.064 37.0391 160.064 37.6133V41H158.688V34.5195H159.766L159.947 35.6621H160.018C160.232 35.2754 160.512 34.9687 160.855 34.7422C161.203 34.5156 161.576 34.4023 161.975 34.4023ZM167.154 34.4023C167.432 34.4023 167.66 34.4219 167.84 34.4609L167.705 35.7441C167.51 35.6973 167.307 35.6738 167.096 35.6738C166.545 35.6738 166.098 35.8535 165.754 36.2129C165.414 36.5723 165.244 37.0391 165.244 37.6133V41H163.867V34.5195H164.945L165.127 35.6621H165.197C165.412 35.2754 165.691 34.9687 166.035 34.7422C166.383 34.5156 166.756 34.4023 167.154 34.4023ZM174.795 37.748C174.795 38.8066 174.523 39.6328 173.98 40.2266C173.438 40.8203 172.682 41.1172 171.713 41.1172C171.107 41.1172 170.572 40.9805 170.107 40.707C169.643 40.4336 169.285 40.041 169.035 39.5293C168.785 39.0176 168.66 38.4238 168.66 37.748C168.66 36.6973 168.93 35.8769 169.469 35.2871C170.008 34.6973 170.768 34.4023 171.748 34.4023C172.686 34.4023 173.428 34.7051 173.975 35.3105C174.521 35.9121 174.795 36.7246 174.795 37.748ZM170.078 37.748C170.078 39.2441 170.631 39.9922 171.736 39.9922C172.83 39.9922 173.377 39.2441 173.377 37.748C173.377 36.2676 172.826 35.5273 171.725 35.5273C171.146 35.5273 170.727 35.7187 170.465 36.1016C170.207 36.4844 170.078 37.0332 170.078 37.748ZM179.67 34.4023C179.947 34.4023 180.176 34.4219 180.355 34.4609L180.221 35.7441C180.025 35.6973 179.822 35.6738 179.611 35.6738C179.061 35.6738 178.613 35.8535 178.27 36.2129C177.93 36.5723 177.76 37.0391 177.76 37.6133V41H176.383V34.5195H177.461L177.643 35.6621H177.713C177.928 35.2754 178.207 34.9687 178.551 34.7422C178.898 34.5156 179.271 34.4023 179.67 34.4023ZM187.129 35.6504C187.992 35.6504 188.676 35.8789 189.18 36.3359C189.684 36.793 189.936 37.416 189.936 38.2051C189.936 39.1191 189.648 39.834 189.074 40.3496C188.504 40.8613 187.691 41.1172 186.637 41.1172C185.68 41.1172 184.928 40.9629 184.381 40.6543V39.4062C184.697 39.5859 185.061 39.7246 185.471 39.8223C185.881 39.9199 186.262 39.9687 186.613 39.9687C187.234 39.9687 187.707 39.8301 188.031 39.5527C188.355 39.2754 188.518 38.8691 188.518 38.334C188.518 37.3105 187.865 36.7988 186.561 36.7988C186.377 36.7988 186.15 36.8184 185.881 36.8574C185.611 36.8926 185.375 36.9336 185.172 36.9805L184.557 36.6172L184.885 32.4336H189.338V33.6582H186.098L185.904 35.7793C186.041 35.7559 186.207 35.7285 186.402 35.6973C186.602 35.666 186.844 35.6504 187.129 35.6504ZM196.885 36.7168C196.885 38.2051 196.645 39.3105 196.164 40.0332C195.688 40.7559 194.957 41.1172 193.973 41.1172C193.02 41.1172 192.297 40.7441 191.805 39.998C191.312 39.2519 191.066 38.1582 191.066 36.7168C191.066 35.2051 191.305 34.0918 191.781 33.3769C192.262 32.6582 192.992 32.2988 193.973 32.2988C194.93 32.2988 195.654 32.6738 196.146 33.4238C196.639 34.1738 196.885 35.2715 196.885 36.7168ZM192.461 36.7168C192.461 37.8848 192.58 38.7187 192.818 39.2187C193.061 39.7187 193.445 39.9687 193.973 39.9687C194.5 39.9687 194.885 39.7148 195.127 39.207C195.373 38.6992 195.496 37.8691 195.496 36.7168C195.496 35.5684 195.373 34.7383 195.127 34.2266C194.885 33.7109 194.5 33.4531 193.973 33.4531C193.445 33.4531 193.061 33.7051 192.818 34.209C192.58 34.7129 192.461 35.5488 192.461 36.7168ZM201.977 41H200.6V35.4687C200.6 34.8086 200.615 34.2851 200.646 33.8984C200.557 33.9922 200.445 34.0957 200.312 34.209C200.184 34.3223 199.746 34.6816 199 35.2871L198.309 34.4141L200.828 32.4336H201.977V41ZM205.041 40.2676C205.041 39.9824 205.115 39.7637 205.264 39.6113C205.412 39.459 205.627 39.3828 205.908 39.3828C206.193 39.3828 206.41 39.4629 206.559 39.623C206.707 39.7793 206.781 39.9941 206.781 40.2676C206.781 40.5449 206.705 40.7656 206.553 40.9297C206.404 41.0898 206.189 41.1699 205.908 41.1699C205.627 41.1699 205.412 41.0898 205.264 40.9297C205.115 40.7695 205.041 40.5488 205.041 40.2676ZM205.041 35.2637C205.041 34.6738 205.33 34.3789 205.908 34.3789C206.201 34.3789 206.42 34.457 206.564 34.6133C206.709 34.7695 206.781 34.9863 206.781 35.2637C206.781 35.541 206.705 35.7617 206.553 35.9258C206.404 36.0859 206.189 36.166 205.908 36.166C205.627 36.166 205.412 36.0859 205.264 35.9258C205.115 35.7656 205.041 35.5449 205.041 35.2637ZM214.105 32.3223C214.918 32.3223 215.561 32.5098 216.033 32.8848C216.506 33.2559 216.742 33.7539 216.742 34.3789C216.742 35.2578 216.215 35.957 215.16 36.4766C215.832 36.8125 216.309 37.166 216.59 37.5371C216.875 37.9082 217.018 38.3223 217.018 38.7793C217.018 39.4863 216.758 40.0527 216.238 40.4785C215.719 40.9043 215.016 41.1172 214.129 41.1172C213.199 41.1172 212.479 40.918 211.967 40.5195C211.455 40.1211 211.199 39.5566 211.199 38.8262C211.199 38.3496 211.332 37.9219 211.598 37.543C211.867 37.1601 212.307 36.8203 212.916 36.5234C212.393 36.2109 212.02 35.8809 211.797 35.5332C211.574 35.1855 211.463 34.7949 211.463 34.3613C211.463 33.7402 211.707 33.2461 212.195 32.8789C212.684 32.5078 213.32 32.3223 214.105 32.3223ZM212.518 38.7793C212.518 39.1855 212.66 39.5019 212.945 39.7285C213.23 39.9512 213.617 40.0625 214.105 40.0625C214.609 40.0625 215 39.9473 215.277 39.7168C215.559 39.4824 215.699 39.166 215.699 38.7676C215.699 38.4512 215.57 38.1621 215.312 37.9004C215.055 37.6387 214.664 37.3965 214.141 37.1738L213.971 37.0976C213.455 37.3242 213.084 37.5742 212.857 37.8476C212.631 38.1172 212.518 38.4277 212.518 38.7793ZM214.094 33.3828C213.703 33.3828 213.389 33.4805 213.15 33.6758C212.912 33.8672 212.793 34.1289 212.793 34.4609C212.793 34.6641 212.836 34.8457 212.922 35.0059C213.008 35.166 213.133 35.3125 213.297 35.4453C213.461 35.5742 213.738 35.7305 214.129 35.9141C214.598 35.707 214.928 35.4902 215.119 35.2637C215.314 35.0332 215.412 34.7656 215.412 34.4609C215.412 34.1289 215.291 33.8672 215.049 33.6758C214.811 33.4805 214.492 33.3828 214.094 33.3828ZM223.873 36.7168C223.873 38.2051 223.633 39.3105 223.152 40.0332C222.676 40.7559 221.945 41.1172 220.961 41.1172C220.008 41.1172 219.285 40.7441 218.793 39.998C218.301 39.2519 218.055 38.1582 218.055 36.7168C218.055 35.2051 218.293 34.0918 218.77 33.3769C219.25 32.6582 219.98 32.2988 220.961 32.2988C221.918 32.2988 222.643 32.6738 223.135 33.4238C223.627 34.1738 223.873 35.2715 223.873 36.7168ZM219.449 36.7168C219.449 37.8848 219.568 38.7187 219.807 39.2187C220.049 39.7187 220.434 39.9687 220.961 39.9687C221.488 39.9687 221.873 39.7148 222.115 39.207C222.361 38.6992 222.484 37.8691 222.484 36.7168C222.484 35.5684 222.361 34.7383 222.115 34.2266C221.873 33.7109 221.488 33.4531 220.961 33.4531C220.434 33.4531 220.049 33.7051 219.807 34.209C219.568 34.7129 219.449 35.5488 219.449 36.7168ZM230.729 36.7168C230.729 38.2051 230.488 39.3105 230.008 40.0332C229.531 40.7559 228.801 41.1172 227.816 41.1172C226.863 41.1172 226.141 40.7441 225.648 39.998C225.156 39.2519 224.91 38.1582 224.91 36.7168C224.91 35.2051 225.148 34.0918 225.625 33.3769C226.105 32.6582 226.836 32.2988 227.816 32.2988C228.773 32.2988 229.498 32.6738 229.99 33.4238C230.482 34.1738 230.729 35.2715 230.729 36.7168ZM226.305 36.7168C226.305 37.8848 226.424 38.7187 226.662 39.2187C226.904 39.7187 227.289 39.9687 227.816 39.9687C228.344 39.9687 228.729 39.7148 228.971 39.207C229.217 38.6992 229.34 37.8691 229.34 36.7168C229.34 35.5684 229.217 34.7383 228.971 34.2266C228.729 33.7109 228.344 33.4531 227.816 33.4531C227.289 33.4531 226.904 33.7051 226.662 34.209C226.424 34.7129 226.305 35.5488 226.305 36.7168Z" fill="#4A4A4A"/>
<path fill-rule="evenodd" clip-rule="evenodd" d="M136 34C136 32.8954 136.895 32 138 32H144C145.105 32 146 32.8954 146 34V40C146 41.1046 145.105 42 144 42H138C136.895 42 136 41.1046 136 40V34Z" fill="#5856D5"/>
<path d="M292.977 41H288.131V32.4336H292.977V33.6172H289.531V35.9492H292.76V37.1211H289.531V39.8105H292.977V41ZM297.975 34.4023C298.252 34.4023 298.48 34.4219 298.66 34.4609L298.525 35.7441C298.33 35.6973 298.127 35.6738 297.916 35.6738C297.365 35.6738 296.918 35.8535 296.574 36.2129C296.234 36.5723 296.064 37.0391 296.064 37.6133V41H294.688V34.5195H295.766L295.947 35.6621H296.018C296.232 35.2754 296.512 34.9687 296.855 34.7422C297.203 34.5156 297.576 34.4023 297.975 34.4023ZM303.154 34.4023C303.432 34.4023 303.66 34.4219 303.84 34.4609L303.705 35.7441C303.51 35.6973 303.307 35.6738 303.096 35.6738C302.545 35.6738 302.098 35.8535 301.754 36.2129C301.414 36.5723 301.244 37.0391 301.244 37.6133V41H299.867V34.5195H300.945L301.127 35.6621H301.197C301.412 35.2754 301.691 34.9687 302.035 34.7422C302.383 34.5156 302.756 34.4023 303.154 34.4023ZM310.795 37.748C310.795 38.8066 310.523 39.6328 309.98 40.2266C309.438 40.8203 308.682 41.1172 307.713 41.1172C307.107 41.1172 306.572 40.9805 306.107 40.707C305.643 40.4336 305.285 40.041 305.035 39.5293C304.785 39.0176 304.66 38.4238 304.66 37.748C304.66 36.6973 304.93 35.8769 305.469 35.2871C306.008 34.6973 306.768 34.4023 307.748 34.4023C308.686 34.4023 309.428 34.7051 309.975 35.3105C310.521 35.9121 310.795 36.7246 310.795 37.748ZM306.078 37.748C306.078 39.2441 306.631 39.9922 307.736 39.9922C308.83 39.9922 309.377 39.2441 309.377 37.748C309.377 36.2676 308.826 35.5273 307.725 35.5273C307.146 35.5273 306.727 35.7187 306.465 36.1016C306.207 36.4844 306.078 37.0332 306.078 37.748ZM315.67 34.4023C315.947 34.4023 316.176 34.4219 316.355 34.4609L316.221 35.7441C316.025 35.6973 315.822 35.6738 315.611 35.6738C315.061 35.6738 314.613 35.8535 314.27 36.2129C313.93 36.5723 313.76 37.0391 313.76 37.6133V41H312.383V34.5195H313.461L313.643 35.6621H313.713C313.928 35.2754 314.207 34.9687 314.551 34.7422C314.898 34.5156 315.271 34.4023 315.67 34.4023ZM323.129 35.6504C323.992 35.6504 324.676 35.8789 325.18 36.3359C325.684 36.793 325.936 37.416 325.936 38.2051C325.936 39.1191 325.648 39.834 325.074 40.3496C324.504 40.8613 323.691 41.1172 322.637 41.1172C321.68 41.1172 320.928 40.9629 320.381 40.6543V39.4062C320.697 39.5859 321.061 39.7246 321.471 39.8223C321.881 39.9199 322.262 39.9687 322.613 39.9687C323.234 39.9687 323.707 39.8301 324.031 39.5527C324.355 39.2754 324.518 38.8691 324.518 38.334C324.518 37.3105 323.865 36.7988 322.561 36.7988C322.377 36.7988 322.15 36.8184 321.881 36.8574C321.611 36.8926 321.375 36.9336 321.172 36.9805L320.557 36.6172L320.885 32.4336H325.338V33.6582H322.098L321.904 35.7793C322.041 35.7559 322.207 35.7285 322.402 35.6973C322.602 35.666 322.844 35.6504 323.129 35.6504ZM332.885 36.7168C332.885 38.2051 332.645 39.3105 332.164 40.0332C331.688 40.7559 330.957 41.1172 329.973 41.1172C329.02 41.1172 328.297 40.7441 327.805 39.998C327.312 39.2519 327.066 38.1582 327.066 36.7168C327.066 35.2051 327.305 34.0918 327.781 33.3769C328.262 32.6582 328.992 32.2988 329.973 32.2988C330.93 32.2988 331.654 32.6738 332.146 33.4238C332.639 34.1738 332.885 35.2715 332.885 36.7168ZM328.461 36.7168C328.461 37.8848 328.58 38.7187 328.818 39.2187C329.061 39.7187 329.445 39.9687 329.973 39.9687C330.5 39.9687 330.885 39.7148 331.127 39.207C331.373 38.6992 331.496 37.8691 331.496 36.7168C331.496 35.5684 331.373 34.7383 331.127 34.2266C330.885 33.7109 330.5 33.4531 329.973 33.4531C329.445 33.4531 329.061 33.7051 328.818 34.209C328.58 34.7129 328.461 35.5488 328.461 36.7168ZM339.74 41H333.934V39.957L336.143 37.7363C336.795 37.0684 337.227 36.5957 337.438 36.3184C337.652 36.0371 337.809 35.7734 337.906 35.5273C338.004 35.2812 338.053 35.0176 338.053 34.7363C338.053 34.3496 337.936 34.0449 337.701 33.8223C337.471 33.5996 337.15 33.4883 336.74 33.4883C336.412 33.4883 336.094 33.5488 335.785 33.6699C335.48 33.791 335.127 34.0098 334.725 34.3262L333.98 33.418C334.457 33.0156 334.92 32.7305 335.369 32.5625C335.818 32.3945 336.297 32.3105 336.805 32.3105C337.602 32.3105 338.24 32.5195 338.721 32.9375C339.201 33.3516 339.441 33.9101 339.441 34.6133C339.441 35 339.371 35.3672 339.23 35.7148C339.094 36.0625 338.881 36.4219 338.592 36.793C338.307 37.1601 337.83 37.6582 337.162 38.2871L335.674 39.7285V39.7871H339.74V41ZM341.041 40.2676C341.041 39.9824 341.115 39.7637 341.264 39.6113C341.412 39.459 341.627 39.3828 341.908 39.3828C342.193 39.3828 342.41 39.4629 342.559 39.623C342.707 39.7793 342.781 39.9941 342.781 40.2676C342.781 40.5449 342.705 40.7656 342.553 40.9297C342.404 41.0898 342.189 41.1699 341.908 41.1699C341.627 41.1699 341.412 41.0898 341.264 40.9297C341.115 40.7695 341.041 40.5488 341.041 40.2676ZM341.041 35.2637C341.041 34.6738 341.33 34.3789 341.908 34.3789C342.201 34.3789 342.42 34.457 342.564 34.6133C342.709 34.7695 342.781 34.9863 342.781 35.2637C342.781 35.541 342.705 35.7617 342.553 35.9258C342.404 36.0859 342.189 36.166 341.908 36.166C341.627 36.166 341.412 36.0859 341.264 35.9258C341.115 35.7656 341.041 35.5449 341.041 35.2637ZM347.234 37.3496C347.234 33.998 348.6 32.3223 351.33 32.3223C351.76 32.3223 352.123 32.3555 352.42 32.4219V33.5703C352.123 33.4844 351.779 33.4414 351.389 33.4414C350.471 33.4414 349.781 33.6875 349.32 34.1797C348.859 34.6719 348.609 35.4609 348.57 36.5469H348.641C348.824 36.2305 349.082 35.9863 349.414 35.8144C349.746 35.6387 350.137 35.5508 350.586 35.5508C351.363 35.5508 351.969 35.7891 352.402 36.2656C352.836 36.7422 353.053 37.3887 353.053 38.2051C353.053 39.1035 352.801 39.8144 352.297 40.3379C351.797 40.8574 351.113 41.1172 350.246 41.1172C349.633 41.1172 349.1 40.9707 348.646 40.6777C348.193 40.3809 347.844 39.9512 347.598 39.3887C347.355 38.8223 347.234 38.1426 347.234 37.3496ZM350.223 39.9805C350.695 39.9805 351.059 39.8281 351.312 39.5234C351.57 39.2187 351.699 38.7832 351.699 38.2168C351.699 37.7246 351.578 37.3379 351.336 37.0566C351.098 36.7754 350.738 36.6348 350.258 36.6348C349.961 36.6348 349.688 36.6992 349.438 36.8281C349.188 36.9531 348.99 37.1269 348.846 37.3496C348.701 37.5684 348.629 37.793 348.629 38.0234C348.629 38.5742 348.777 39.0391 349.074 39.418C349.375 39.793 349.758 39.9805 350.223 39.9805ZM356.973 35.6504C357.836 35.6504 358.52 35.8789 359.023 36.3359C359.527 36.793 359.779 37.416 359.779 38.2051C359.779 39.1191 359.492 39.834 358.918 40.3496C358.348 40.8613 357.535 41.1172 356.48 41.1172C355.523 41.1172 354.771 40.9629 354.225 40.6543V39.4062C354.541 39.5859 354.904 39.7246 355.314 39.8223C355.725 39.9199 356.105 39.9687 356.457 39.9687C357.078 39.9687 357.551 39.8301 357.875 39.5527C358.199 39.2754 358.361 38.8691 358.361 38.334C358.361 37.3105 357.709 36.7988 356.404 36.7988C356.221 36.7988 355.994 36.8184 355.725 36.8574C355.455 36.8926 355.219 36.9336 355.016 36.9805L354.4 36.6172L354.729 32.4336H359.182V33.6582H355.941L355.748 35.7793C355.885 35.7559 356.051 35.7285 356.246 35.6973C356.445 35.666 356.688 35.6504 356.973 35.6504ZM366.729 36.7168C366.729 38.2051 366.488 39.3105 366.008 40.0332C365.531 40.7559 364.801 41.1172 363.816 41.1172C362.863 41.1172 362.141 40.7441 361.648 39.998C361.156 39.2519 360.91 38.1582 360.91 36.7168C360.91 35.2051 361.148 34.0918 361.625 33.3769C362.105 32.6582 362.836 32.2988 363.816 32.2988C364.773 32.2988 365.498 32.6738 365.99 33.4238C366.482 34.1738 366.729 35.2715 366.729 36.7168ZM362.305 36.7168C362.305 37.8848 362.424 38.7187 362.662 39.2187C362.904 39.7187 363.289 39.9687 363.816 39.9687C364.344 39.9687 364.729 39.7148 364.971 39.207C365.217 38.6992 365.34 37.8691 365.34 36.7168C365.34 35.5684 365.217 34.7383 364.971 34.2266C364.729 33.7109 364.344 33.4531 363.816 33.4531C363.289 33.4531 362.904 33.7051 362.662 34.209C362.424 34.7129 362.305 35.5488 362.305 36.7168Z" fill="#4A4A4A"/>
<path fill-rule="evenodd" clip-rule="evenodd" d="M272 34C272 32.8954 272.895 32 274 32H280C281.105 32 282 32.8954 282 34V40C282 41.1046 281.105 42 280 42H274C272.895 42 272 41.1046 272 40V34Z" fill="#2196F3"/>
<path d="M431.736 36.7051C431.736 38.0996 431.387 39.1836 430.688 39.957C429.992 40.7305 429.006 41.1172 427.729 41.1172C426.436 41.1172 425.441 40.7344 424.746 39.9687C424.055 39.1992 423.709 38.1074 423.709 36.6934C423.709 35.2793 424.057 34.1934 424.752 33.4355C425.451 32.6777 426.447 32.2988 427.74 32.2988C429.014 32.2988 429.998 32.6836 430.693 33.4531C431.389 34.2226 431.736 35.3066 431.736 36.7051ZM425.197 36.7051C425.197 37.7598 425.41 38.5605 425.836 39.1074C426.262 39.6504 426.893 39.9219 427.729 39.9219C428.561 39.9219 429.188 39.6523 429.609 39.1133C430.035 38.5742 430.248 37.7715 430.248 36.7051C430.248 35.6543 430.037 34.8574 429.615 34.3144C429.197 33.7715 428.572 33.5 427.74 33.5C426.9 33.5 426.266 33.7715 425.836 34.3144C425.41 34.8574 425.197 35.6543 425.197 36.7051ZM435.844 40.0039C436.18 40.0039 436.516 39.9512 436.852 39.8457V40.8828C436.699 40.9492 436.502 41.0039 436.26 41.0469C436.021 41.0937 435.773 41.1172 435.516 41.1172C434.211 41.1172 433.559 40.4297 433.559 39.0547V35.5625H432.674V34.9531L433.623 34.4492L434.092 33.0781H434.941V34.5195H436.787V35.5625H434.941V39.0312C434.941 39.3633 435.023 39.6094 435.188 39.7695C435.355 39.9258 435.574 40.0039 435.844 40.0039ZM443.854 41H442.471V37.0156C442.471 36.5156 442.369 36.1426 442.166 35.8965C441.967 35.6504 441.648 35.5273 441.211 35.5273C440.633 35.5273 440.207 35.7012 439.934 36.0488C439.664 36.3926 439.529 36.9707 439.529 37.7832V41H438.152V31.8828H439.529V34.1973C439.529 34.5684 439.506 34.9648 439.459 35.3867H439.547C439.734 35.0742 439.994 34.832 440.326 34.6601C440.662 34.4883 441.053 34.4023 441.498 34.4023C443.068 34.4023 443.854 35.1934 443.854 36.7754V41ZM448.6 41.1172C447.592 41.1172 446.803 40.8242 446.232 40.2383C445.666 39.6484 445.383 38.8379 445.383 37.8066C445.383 36.748 445.646 35.916 446.174 35.3105C446.701 34.7051 447.426 34.4023 448.348 34.4023C449.203 34.4023 449.879 34.6621 450.375 35.1816C450.871 35.7012 451.119 36.416 451.119 37.3262V38.0703H446.801C446.82 38.6992 446.99 39.1836 447.311 39.5234C447.631 39.8594 448.082 40.0273 448.664 40.0273C449.047 40.0273 449.402 39.9922 449.73 39.9219C450.062 39.8476 450.418 39.7266 450.797 39.5586V40.6777C450.461 40.8379 450.121 40.9512 449.777 41.0176C449.434 41.084 449.041 41.1172 448.6 41.1172ZM448.348 35.4453C447.91 35.4453 447.559 35.584 447.293 35.8613C447.031 36.1387 446.875 36.543 446.824 37.0742H449.766C449.758 36.5391 449.629 36.1348 449.379 35.8613C449.129 35.584 448.785 35.4453 448.348 35.4453ZM455.971 34.4023C456.248 34.4023 456.477 34.4219 456.656 34.4609L456.521 35.7441C456.326 35.6973 456.123 35.6738 455.912 35.6738C455.361 35.6738 454.914 35.8535 454.57 36.2129C454.23 36.5723 454.061 37.0391 454.061 37.6133V41H452.684V34.5195H453.762L453.943 35.6621H454.014C454.229 35.2754 454.508 34.9687 454.852 34.7422C455.199 34.5156 455.572 34.4023 455.971 34.4023ZM457.658 40.2676C457.658 39.9824 457.732 39.7637 457.881 39.6113C458.029 39.459 458.244 39.3828 458.525 39.3828C458.811 39.3828 459.027 39.4629 459.176 39.623C459.324 39.7793 459.398 39.9941 459.398 40.2676C459.398 40.5449 459.322 40.7656 459.17 40.9297C459.021 41.0898 458.807 41.1699 458.525 41.1699C458.244 41.1699 458.029 41.0898 457.881 40.9297C457.732 40.7695 457.658 40.5488 457.658 40.2676ZM457.658 35.2637C457.658 34.6738 457.947 34.3789 458.525 34.3789C458.818 34.3789 459.037 34.457 459.182 34.6133C459.326 34.7695 459.398 34.9863 459.398 35.2637C459.398 35.541 459.322 35.7617 459.17 35.9258C459.021 36.0859 458.807 36.166 458.525 36.166C458.244 36.166 458.029 36.0859 457.881 35.9258C457.732 35.7656 457.658 35.5449 457.658 35.2637ZM469.312 34.4023C469.312 34.9453 469.154 35.3984 468.838 35.7617C468.521 36.1211 468.076 36.3633 467.502 36.4883V36.5351C468.189 36.6211 468.705 36.8359 469.049 37.1797C469.393 37.5195 469.564 37.9726 469.564 38.5391C469.564 39.3633 469.273 40 468.691 40.4492C468.109 40.8945 467.281 41.1172 466.207 41.1172C465.258 41.1172 464.457 40.9629 463.805 40.6543V39.4297C464.168 39.6094 464.553 39.748 464.959 39.8457C465.365 39.9434 465.756 39.9922 466.131 39.9922C466.795 39.9922 467.291 39.8691 467.619 39.623C467.947 39.3769 468.111 38.9961 468.111 38.4805C468.111 38.0234 467.93 37.6875 467.566 37.4726C467.203 37.2578 466.633 37.1504 465.855 37.1504H465.111V36.0312H465.867C467.234 36.0312 467.918 35.5586 467.918 34.6133C467.918 34.2461 467.799 33.9629 467.561 33.7637C467.322 33.5644 466.971 33.4648 466.506 33.4648C466.182 33.4648 465.869 33.5117 465.568 33.6055C465.268 33.6953 464.912 33.873 464.502 34.1387L463.828 33.1777C464.613 32.5996 465.525 32.3105 466.564 32.3105C467.428 32.3105 468.102 32.4961 468.586 32.8672C469.07 33.2383 469.312 33.75 469.312 34.4023ZM476.168 34.4023C476.168 34.9453 476.01 35.3984 475.693 35.7617C475.377 36.1211 474.932 36.3633 474.357 36.4883V36.5351C475.045 36.6211 475.561 36.8359 475.904 37.1797C476.248 37.5195 476.42 37.9726 476.42 38.5391C476.42 39.3633 476.129 40 475.547 40.4492C474.965 40.8945 474.137 41.1172 473.062 41.1172C472.113 41.1172 471.312 40.9629 470.66 40.6543V39.4297C471.023 39.6094 471.408 39.748 471.814 39.8457C472.221 39.9434 472.611 39.9922 472.986 39.9922C473.65 39.9922 474.146 39.8691 474.475 39.623C474.803 39.3769 474.967 38.9961 474.967 38.4805C474.967 38.0234 474.785 37.6875 474.422 37.4726C474.059 37.2578 473.488 37.1504 472.711 37.1504H471.967V36.0312H472.723C474.09 36.0312 474.773 35.5586 474.773 34.6133C474.773 34.2461 474.654 33.9629 474.416 33.7637C474.178 33.5644 473.826 33.4648 473.361 33.4648C473.037 33.4648 472.725 33.5117 472.424 33.6055C472.123 33.6953 471.768 33.873 471.357 34.1387L470.684 33.1777C471.469 32.5996 472.381 32.3105 473.42 32.3105C474.283 32.3105 474.957 32.4961 475.441 32.8672C475.926 33.2383 476.168 33.75 476.168 34.4023ZM483.346 36.7168C483.346 38.2051 483.105 39.3105 482.625 40.0332C482.148 40.7559 481.418 41.1172 480.434 41.1172C479.48 41.1172 478.758 40.7441 478.266 39.998C477.773 39.2519 477.527 38.1582 477.527 36.7168C477.527 35.2051 477.766 34.0918 478.242 33.3769C478.723 32.6582 479.453 32.2988 480.434 32.2988C481.391 32.2988 482.115 32.6738 482.607 33.4238C483.1 34.1738 483.346 35.2715 483.346 36.7168ZM478.922 36.7168C478.922 37.8848 479.041 38.7187 479.279 39.2187C479.521 39.7187 479.906 39.9687 480.434 39.9687C480.961 39.9687 481.346 39.7148 481.588 39.207C481.834 38.6992 481.957 37.8691 481.957 36.7168C481.957 35.5684 481.834 34.7383 481.588 34.2266C481.346 33.7109 480.961 33.4531 480.434 33.4531C479.906 33.4531 479.521 33.7051 479.279 34.209C479.041 34.7129 478.922 35.5488 478.922 36.7168Z" fill="#4A4A4A"/>
<path fill-rule="evenodd" clip-rule="evenodd" d="M408 34C408 32.8954 408.895 32 410 32H416C417.105 32 418 32.8954 418 34V40C418 41.1046 417.105 42 416 42H410C408.895 42 408 41.1046 408 40V34Z" fill="#A0B0B9"/>
<path fill-rule="evenodd" clip-rule="evenodd" d="M237 -7.62939e-06H394V7.99999H237V-7.62939e-06Z" fill="#5856D5"/>
<path fill-rule="evenodd" clip-rule="evenodd" d="M395 -7.62939e-06H525V7.99999H395V-7.62939e-06Z" fill="#2196F3"/>
<path fill-rule="evenodd" clip-rule="evenodd" d="M526 -7.62939e-06H606C607.105 -7.62939e-06 608 0.895423 608 1.99999V5.99999C608 7.10456 607.105 7.99999 606 7.99999H526V-7.62939e-06Z" fill="#A0B0B9"/>
</svg>
